<?xml version="1.0" encoding="UTF-8" standalone="no"?>
<svg
   width="497"
   height="470"
   version="1.1"
   id="svg3846"
   sodipodi:docname="heart.svg"
   inkscape:version="1.1.2 (0a00cf5339, 2022-02-04)"
   xmlns:inkscape="http://www.inkscape.org/namespaces/inkscape"
   xmlns:sodipodi="http://sodipodi.sourceforge.net/DTD/sodipodi-0.dtd"
   xmlns="http://www.w3.org/2000/svg"
   xmlns:svg="http://www.w3.org/2000/svg">
  <defs
     id="defs3850" />
  <sodipodi:namedview
     id="namedview3848"
     pagecolor="#ffffff"
     bordercolor="#999999"
     borderopacity="1"
     inkscape:pageshadow="0"
     inkscape:pageopacity="0"
     inkscape:pagecheckerboard="0"
     showgrid="false"
     inkscape:zoom="0.87765957"
     inkscape:cx="105.39394"
     inkscape:cy="111.09091"
     inkscape:window-width="1920"
     inkscape:window-height="1001"
     inkscape:window-x="0"
     inkscape:window-y="0"
     inkscape:window-maximized="1"
     inkscape:current-layer="svg3846" />
  <path
     id="path3931"
     style="opacity:1;fill:none;stroke:#ff0000;stroke-width:24.1646;stroke-linecap:square;paint-order:fill markers stroke"
     d="m 445.59072,231.08228 c -32.85559,48.49022 -72.64697,72.36632 -107.66474,109.80004 -31.14015,33.28857 -91.04653,102.03465 -91.04653,102.03465 0,0 -36.49114,-53.68262 -97.28823,-110.3499 -26.63226,-24.8232 -55.306012,-45.83973 -79.353932,-71.77287 -8.36732,-9.02326 -24.82067,-32.92241 -24.82067,-32.92241 0,0 -7.90229,-11.45009 -10.49658,-19.3975 -3.25404,-9.9685 -7.55389,-20.41533 -8.67337,-27.78425 -3.57786,-23.55106 -11.22808,-51.08837 0.89816,-81.29997 12.83968,-31.98909 38.96249,-56.911724 68.78278,-69.484095 25.604002,-10.794767 63.631192,-10.607433 92.654462,2.645258 27.40675,12.514558 46.11777,37.068347 58.29738,56.365737 25.94949,-44.21463 80.0439,-77.733694 134.74711,-63.757689 19.156,4.894126 47.5978,17.101032 60.87574,35.599489 5.65668,7.88074 10.99612,14.49507 15.48036,22.3798 4.43897,7.80514 7.35264,15.88183 11.20658,24.4956 16.98667,37.96616 -5.77832,97.14801 -23.59852,123.44811 z"
     sodipodi:nodetypes="sacsscssssscssass" />
</svg>
